<svg xmlns="http://www.w3.org/2000/svg" xmlns:xlink="http://www.w3.org/1999/xlink" contentStyleType="text/css" height="574px" preserveAspectRatio="none" style="width:1000px;height:574px;background:#FFFFFF;" version="1.1" viewBox="0 0 1000 574" width="1000px" zoomAndPan="magnify"><defs/><g><!--cluster 67485d5b6ede83e20a6f70692f1943ee--><g id="cluster_67485d5b6ede83e20a6f70692f1943ee"><path d="M817.5,6 L868.5,6 A3.75,3.75 0 0 1 871,8.5 L878,28.2969 L914.5,28.2969 A2.5,2.5 0 0 1 917,30.7969 L917,133.39 A2.5,2.5 0 0 1 914.5,135.89 L817.5,135.89 A2.5,2.5 0 0 1 815,133.39 L815,8.5 A2.5,2.5 0 0 1 817.5,6 " fill="none" style="stroke:#000000;stroke-width:1.5;"/><line style="stroke:#000000;stroke-width:1.5;" x1="815" x2="878" y1="28.2969" y2="28.2969"/><text fill="#000000" font-family="sans-serif" font-size="14" font-weight="bold" lengthAdjust="spacing" textLength="50" x="819" y="20.9951">setup/</text></g><!--cluster 1b69427c9fe94c0075b06de416396900--><g id="cluster_1b69427c9fe94c0075b06de416396900"><path d="M382.5,6 L463.5,6 A3.75,3.75 0 0 1 466,8.5 L473,28.2969 L713.5,28.2969 A2.5,2.5 0 0 1 716,30.7969 L716,426.17 A2.5,2.5 0 0 1 713.5,428.67 L382.5,428.67 A2.5,2.5 0 0 1 380,426.17 L380,8.5 A2.5,2.5 0 0 1 382.5,6 " fill="none" style="stroke:#000000;stroke-width:1.5;"/><line style="stroke:#000000;stroke-width:1.5;" x1="380" x2="473" y1="28.2969" y2="28.2969"/><text fill="#000000" font-family="sans-serif" font-size="14" font-weight="bold" lengthAdjust="spacing" textLength="80" x="384" y="20.9951">examples/</text></g><!--cluster af17bb4a64835074a2f80636bd286d3f--><g id="cluster_af17bb4a64835074a2f80636bd286d3f"><path d="M8.5,159.89 L54.5,159.89 A3.75,3.75 0 0 1 57,162.39 L64,182.1869 L353.5,182.1869 A2.5,2.5 0 0 1 356,184.6869 L356,426.17 A2.5,2.5 0 0 1 353.5,428.67 L8.5,428.67 A2.5,2.5 0 0 1 6,426.17 L6,162.39 A2.5,2.5 0 0 1 8.5,159.89 " fill="none" style="stroke:#000000;stroke-width:1.5;"/><line style="stroke:#000000;stroke-width:1.5;" x1="6" x2="64" y1="182.1869" y2="182.1869"/><text fill="#000000" font-family="sans-serif" font-size="14" font-weight="bold" lengthAdjust="spacing" textLength="45" x="10" y="174.8851">tests/</text></g><!--cluster 69af270cd7019d3dd5c252ece0ef0c7a--><g id="cluster_69af270cd7019d3dd5c252ece0ef0c7a"><path d="M742.5,298.78 L932.5,298.78 A3.75,3.75 0 0 1 935,301.28 L942,321.0769 L990.5,321.0769 A2.5,2.5 0 0 1 993,323.5769 L993,565.06 A2.5,2.5 0 0 1 990.5,567.56 L742.5,567.56 A2.5,2.5 0 0 1 740,565.06 L740,301.28 A2.5,2.5 0 0 1 742.5,298.78 " fill="none" style="stroke:#000000;stroke-width:1.5;"/><line style="stroke:#000000;stroke-width:1.5;" x1="740" x2="942" y1="321.0769" y2="321.0769"/><text fill="#000000" font-family="sans-serif" font-size="14" font-weight="bold" lengthAdjust="spacing" textLength="189" x="744" y="313.7751">bootstrap_modal_forms/</text></g><!--entity c5d8511e3cd88ec4ceb118e8d78a5289--><g id="elem_c5d8511e3cd88ec4ceb118e8d78a5289"><rect fill="#F1F1F1" height="78.8906" rx="2.5" ry="2.5" style="stroke:#181818;stroke-width:0.5;" width="70" x="831" y="41"/><rect fill="#F1F1F1" height="10" style="stroke:#181818;stroke-width:0.5;" width="15" x="881" y="46"/><rect fill="#F1F1F1" height="2" style="stroke:#181818;stroke-width:0.5;" width="4" x="879" y="48"/><rect fill="#F1F1F1" height="2" style="stroke:#181818;stroke-width:0.5;" width="4" x="879" y="52"/><text fill="#000000" font-family="sans-serif" font-size="14" font-weight="bold" lengthAdjust="spacing" textLength="30" x="846" y="73.9951">urls</text><text fill="#000000" font-family="sans-serif" font-size="14" lengthAdjust="spacing" textLength="4" x="846" y="90.292">&#160;</text><text fill="#000000" font-family="sans-serif" font-size="14" lengthAdjust="spacing" textLength="4" x="846" y="106.5889">&#160;</text></g><!--entity da5107891f7486fc25c93ba3254fdb0d--><g id="elem_da5107891f7486fc25c93ba3254fdb0d"><rect fill="#F1F1F1" height="78.8906" rx="2.5" ry="2.5" style="stroke:#181818;stroke-width:0.5;" width="86" x="543" y="194.89"/><rect fill="#F1F1F1" height="10" style="stroke:#181818;stroke-width:0.5;" width="15" x="609" y="199.89"/><rect fill="#F1F1F1" height="2" style="stroke:#181818;stroke-width:0.5;" width="4" x="607" y="201.89"/><rect fill="#F1F1F1" height="2" style="stroke:#181818;stroke-width:0.5;" width="4" x="607" y="205.89"/><text fill="#000000" font-family="sans-serif" font-size="14" font-weight="bold" lengthAdjust="spacing" textLength="46" x="558" y="227.8851">forms</text><text fill="#000000" font-family="sans-serif" font-size="14" lengthAdjust="spacing" textLength="4" x="558" y="244.182">&#160;</text><text fill="#000000" font-family="sans-serif" font-size="14" lengthAdjust="spacing" textLength="4" x="558" y="260.4789">&#160;</text></g><!--entity 061243cfed7eeae13825b61650199aea--><g id="elem_061243cfed7eeae13825b61650199aea"><rect fill="#F1F1F1" height="78.8906" rx="2.5" ry="2.5" style="stroke:#181818;stroke-width:0.5;" width="70" x="396" y="41"/><rect fill="#F1F1F1" height="10" style="stroke:#181818;stroke-width:0.5;" width="15" x="446" y="46"/><rect fill="#F1F1F1" height="2" style="stroke:#181818;stroke-width:0.5;" width="4" x="444" y="48"/><rect fill="#F1F1F1" height="2" style="stroke:#181818;stroke-width:0.5;" width="4" x="444" y="52"/><text fill="#000000" font-family="sans-serif" font-size="14" font-weight="bold" lengthAdjust="spacing" textLength="30" x="411" y="73.9951">urls</text><text fill="#000000" font-family="sans-serif" font-size="14" lengthAdjust="spacing" textLength="4" x="411" y="90.292">&#160;</text><text fill="#000000" font-family="sans-serif" font-size="14" lengthAdjust="spacing" textLength="4" x="411" y="106.5889">&#160;</text></g><!--entity a9971c5653c1a3c3f8a227f5731bf190--><g id="elem_a9971c5653c1a3c3f8a227f5731bf190"><rect fill="#F1F1F1" height="78.8906" rx="2.5" ry="2.5" style="stroke:#181818;stroke-width:0.5;" width="86" x="501" y="41"/><rect fill="#F1F1F1" height="10" style="stroke:#181818;stroke-width:0.5;" width="15" x="567" y="46"/><rect fill="#F1F1F1" height="2" style="stroke:#181818;stroke-width:0.5;" width="4" x="565" y="48"/><rect fill="#F1F1F1" height="2" style="stroke:#181818;stroke-width:0.5;" width="4" x="565" y="52"/><text fill="#000000" font-family="sans-serif" font-size="14" font-weight="bold" lengthAdjust="spacing" textLength="46" x="516" y="73.9951">views</text><text fill="#000000" font-family="sans-serif" font-size="14" lengthAdjust="spacing" textLength="4" x="516" y="90.292">&#160;</text><text fill="#000000" font-family="sans-serif" font-size="14" lengthAdjust="spacing" textLength="4" x="516" y="106.5889">&#160;</text></g><!--entity 52c11bc4f0daa9db98e93e984eded94a--><g id="elem_52c11bc4f0daa9db98e93e984eded94a"><rect fill="#F1F1F1" height="78.8906" rx="2.5" ry="2.5" style="stroke:#181818;stroke-width:0.5;" width="78" x="622" y="41"/><rect fill="#F1F1F1" height="10" style="stroke:#181818;stroke-width:0.5;" width="15" x="680" y="46"/><rect fill="#F1F1F1" height="2" style="stroke:#181818;stroke-width:0.5;" width="4" x="678" y="48"/><rect fill="#F1F1F1" height="2" style="stroke:#181818;stroke-width:0.5;" width="4" x="678" y="52"/><text fill="#000000" font-family="sans-serif" font-size="14" font-weight="bold" lengthAdjust="spacing" textLength="38" x="637" y="73.9951">apps</text><text fill="#000000" font-family="sans-serif" font-size="14" lengthAdjust="spacing" textLength="4" x="637" y="90.292">&#160;</text><text fill="#000000" font-family="sans-serif" font-size="14" lengthAdjust="spacing" textLength="4" x="637" y="106.5889">&#160;</text></g><!--entity 030382f4c6c237630a97e1c778a0903f--><g id="elem_030382f4c6c237630a97e1c778a0903f"><rect fill="#F1F1F1" height="78.8906" rx="2.5" ry="2.5" style="stroke:#181818;stroke-width:0.5;" width="97" x="405.5" y="333.78"/><rect fill="#F1F1F1" height="10" style="stroke:#181818;stroke-width:0.5;" width="15" x="482.5" y="338.78"/><rect fill="#F1F1F1" height="2" style="stroke:#181818;stroke-width:0.5;" width="4" x="480.5" y="340.78"/><rect fill="#F1F1F1" height="2" style="stroke:#181818;stroke-width:0.5;" width="4" x="480.5" y="344.78"/><text fill="#000000" font-family="sans-serif" font-size="14" font-weight="bold" lengthAdjust="spacing" textLength="57" x="420.5" y="366.7751">models</text><text fill="#000000" font-family="sans-serif" font-size="14" lengthAdjust="spacing" textLength="4" x="420.5" y="383.072">&#160;</text><text fill="#000000" font-family="sans-serif" font-size="14" lengthAdjust="spacing" textLength="4" x="420.5" y="399.3689">&#160;</text></g><!--entity d85662de09437d9867fe2f4131a73778--><g id="elem_d85662de09437d9867fe2f4131a73778"><rect fill="#F1F1F1" height="78.8906" rx="2.5" ry="2.5" style="stroke:#181818;stroke-width:0.5;" width="78" x="66" y="333.78"/><rect fill="#F1F1F1" height="10" style="stroke:#181818;stroke-width:0.5;" width="15" x="124" y="338.78"/><rect fill="#F1F1F1" height="2" style="stroke:#181818;stroke-width:0.5;" width="4" x="122" y="340.78"/><rect fill="#F1F1F1" height="2" style="stroke:#181818;stroke-width:0.5;" width="4" x="122" y="344.78"/><text fill="#000000" font-family="sans-serif" font-size="14" font-weight="bold" lengthAdjust="spacing" textLength="38" x="81" y="366.7751">base</text><text fill="#000000" font-family="sans-serif" font-size="14" lengthAdjust="spacing" textLength="4" x="81" y="383.072">&#160;</text><text fill="#000000" font-family="sans-serif" font-size="14" lengthAdjust="spacing" textLength="4" x="81" y="399.3689">&#160;</text></g><!--entity 0bd5e95d3ed9682024f327b3c6a273b0--><g id="elem_0bd5e95d3ed9682024f327b3c6a273b0"><rect fill="#F1F1F1" height="78.8906" rx="2.5" ry="2.5" style="stroke:#181818;stroke-width:0.5;" width="165" x="22.5" y="194.89"/><rect fill="#F1F1F1" height="10" style="stroke:#181818;stroke-width:0.5;" width="15" x="167.5" y="199.89"/><rect fill="#F1F1F1" height="2" style="stroke:#181818;stroke-width:0.5;" width="4" x="165.5" y="201.89"/><rect fill="#F1F1F1" height="2" style="stroke:#181818;stroke-width:0.5;" width="4" x="165.5" y="205.89"/><text fill="#000000" font-family="sans-serif" font-size="14" font-weight="bold" lengthAdjust="spacing" textLength="125" x="37.5" y="227.8851">tests_functional</text><text fill="#000000" font-family="sans-serif" font-size="14" lengthAdjust="spacing" textLength="4" x="37.5" y="244.182">&#160;</text><text fill="#000000" font-family="sans-serif" font-size="14" lengthAdjust="spacing" textLength="4" x="37.5" y="260.4789">&#160;</text></g><!--entity c1b6bd7440ae06f7930764aa24dfc835--><g id="elem_c1b6bd7440ae06f7930764aa24dfc835"><rect fill="#F1F1F1" height="78.8906" rx="2.5" ry="2.5" style="stroke:#181818;stroke-width:0.5;" width="117" x="222.5" y="194.89"/><rect fill="#F1F1F1" height="10" style="stroke:#181818;stroke-width:0.5;" width="15" x="319.5" y="199.89"/><rect fill="#F1F1F1" height="2" style="stroke:#181818;stroke-width:0.5;" width="4" x="317.5" y="201.89"/><rect fill="#F1F1F1" height="2" style="stroke:#181818;stroke-width:0.5;" width="4" x="317.5" y="205.89"/><text fill="#000000" font-family="sans-serif" font-size="14" font-weight="bold" lengthAdjust="spacing" textLength="77" x="237.5" y="227.8851">tests_unit</text><text fill="#000000" font-family="sans-serif" font-size="14" lengthAdjust="spacing" textLength="4" x="237.5" y="244.182">&#160;</text><text fill="#000000" font-family="sans-serif" font-size="14" lengthAdjust="spacing" textLength="4" x="237.5" y="260.4789">&#160;</text></g><!--entity 91d94b9f0ccab947ba604e7649b6f663--><g id="elem_91d94b9f0ccab947ba604e7649b6f663"><rect fill="#F1F1F1" height="78.8906" rx="2.5" ry="2.5" style="stroke:#181818;stroke-width:0.5;" width="100" x="877" y="333.78"/><rect fill="#F1F1F1" height="10" style="stroke:#181818;stroke-width:0.5;" width="15" x="957" y="338.78"/><rect fill="#F1F1F1" height="2" style="stroke:#181818;stroke-width:0.5;" width="4" x="955" y="340.78"/><rect fill="#F1F1F1" height="2" style="stroke:#181818;stroke-width:0.5;" width="4" x="955" y="344.78"/><text fill="#000000" font-family="sans-serif" font-size="14" font-weight="bold" lengthAdjust="spacing" textLength="60" x="892" y="366.7751">generic</text><text fill="#000000" font-family="sans-serif" font-size="14" lengthAdjust="spacing" textLength="4" x="892" y="383.072">&#160;</text><text fill="#000000" font-family="sans-serif" font-size="14" lengthAdjust="spacing" textLength="4" x="892" y="399.3689">&#160;</text></g><!--entity 0ea3fb9627ce83d115bba3c004939083--><g id="elem_0ea3fb9627ce83d115bba3c004939083"><rect fill="#F1F1F1" height="78.8906" rx="2.5" ry="2.5" style="stroke:#181818;stroke-width:0.5;" width="86" x="756" y="333.78"/><rect fill="#F1F1F1" height="10" style="stroke:#181818;stroke-width:0.5;" width="15" x="822" y="338.78"/><rect fill="#F1F1F1" height="2" style="stroke:#181818;stroke-width:0.5;" width="4" x="820" y="340.78"/><rect fill="#F1F1F1" height="2" style="stroke:#181818;stroke-width:0.5;" width="4" x="820" y="344.78"/><text fill="#000000" font-family="sans-serif" font-size="14" font-weight="bold" lengthAdjust="spacing" textLength="46" x="771" y="366.7751">forms</text><text fill="#000000" font-family="sans-serif" font-size="14" lengthAdjust="spacing" textLength="4" x="771" y="383.072">&#160;</text><text fill="#000000" font-family="sans-serif" font-size="14" lengthAdjust="spacing" textLength="4" x="771" y="399.3689">&#160;</text></g><!--entity 4b845496969556c255f4355a8cab1be6--><g id="elem_4b845496969556c255f4355a8cab1be6"><rect fill="#F1F1F1" height="78.8906" rx="2.5" ry="2.5" style="stroke:#181818;stroke-width:0.5;" width="90" x="756" y="472.67"/><rect fill="#F1F1F1" height="10" style="stroke:#181818;stroke-width:0.5;" width="15" x="826" y="477.67"/><rect fill="#F1F1F1" height="2" style="stroke:#181818;stroke-width:0.5;" width="4" x="824" y="479.67"/><rect fill="#F1F1F1" height="2" style="stroke:#181818;stroke-width:0.5;" width="4" x="824" y="483.67"/><text fill="#000000" font-family="sans-serif" font-size="14" font-weight="bold" lengthAdjust="spacing" textLength="50" x="771" y="505.6651">mixins</text><text fill="#000000" font-family="sans-serif" font-size="14" lengthAdjust="spacing" textLength="4" x="771" y="521.962">&#160;</text><text fill="#000000" font-family="sans-serif" font-size="14" lengthAdjust="spacing" textLength="4" x="771" y="538.2589">&#160;</text></g><!--entity e92735e4ad030c14012828a773b4bcb6--><g id="elem_e92735e4ad030c14012828a773b4bcb6"><rect fill="#F1F1F1" height="78.8906" rx="2.5" ry="2.5" style="stroke:#181818;stroke-width:0.5;" width="85" x="62.5" y="472.67"/><rect fill="#F1F1F1" height="10" style="stroke:#181818;stroke-width:0.5;" width="15" x="127.5" y="477.67"/><rect fill="#F1F1F1" height="2" style="stroke:#181818;stroke-width:0.5;" width="4" x="125.5" y="479.67"/><rect fill="#F1F1F1" height="2" style="stroke:#181818;stroke-width:0.5;" width="4" x="125.5" y="483.67"/><text fill="#000000" font-family="sans-serif" font-size="14" font-weight="bold" lengthAdjust="spacing" textLength="45" x="77.5" y="505.6651">setup</text><text fill="#000000" font-family="sans-serif" font-size="14" lengthAdjust="spacing" textLength="4" x="77.5" y="521.962">&#160;</text><text fill="#000000" font-family="sans-serif" font-size="14" lengthAdjust="spacing" textLength="4" x="77.5" y="538.2589">&#160;</text></g><!--link da5107891f7486fc25c93ba3254fdb0d to 0ea3fb9627ce83d115bba3c004939083--><g id="link_da5107891f7486fc25c93ba3254fdb0d_0ea3fb9627ce83d115bba3c004939083"><path codeLine="75" d="M629.31,249.19 C655.61,258.7 689.18,272.84 716,290.78 C733.79,302.68 746.9031,314.373 761.0631,329.043 " fill="none" id="da5107891f7486fc25c93ba3254fdb0d-to-0ea3fb9627ce83d115bba3c004939083" style="stroke:#181818;stroke-width:1.0;"/><polygon fill="#181818" points="765.23,333.36,761.8576,324.1065,761.7576,329.7625,756.1016,329.6624,765.23,333.36" style="stroke:#181818;stroke-width:1.0;"/></g><!--link da5107891f7486fc25c93ba3254fdb0d to 4b845496969556c255f4355a8cab1be6--><g id="link_da5107891f7486fc25c93ba3254fdb0d_4b845496969556c255f4355a8cab1be6"><path codeLine="76" d="M614.54,273.95 C644.9,314.77 694.58,380.85 739,436.67 C748.32,448.38 754.8061,456.343 764.3261,467.753 " fill="none" id="da5107891f7486fc25c93ba3254fdb0d-to-4b845496969556c255f4355a8cab1be6" style="stroke:#181818;stroke-width:1.0;"/><polygon fill="#181818" points="768.17,472.36,765.4755,462.8869,764.9668,468.5208,759.3328,468.0121,768.17,472.36" style="stroke:#181818;stroke-width:1.0;"/></g><!--link da5107891f7486fc25c93ba3254fdb0d to 030382f4c6c237630a97e1c778a0903f--><g id="link_da5107891f7486fc25c93ba3254fdb0d_030382f4c6c237630a97e1c778a0903f"><path codeLine="77" d="M548.53,274.19 C530.54,292.85 513.2142,310.8103 495.2742,329.4203 " fill="none" id="da5107891f7486fc25c93ba3254fdb0d-to-030382f4c6c237630a97e1c778a0903f" style="stroke:#181818;stroke-width:1.0;"/><polygon fill="#181818" points="491.11,333.74,500.236,330.0366,494.5801,330.1403,494.4765,324.4844,491.11,333.74" style="stroke:#181818;stroke-width:1.0;"/></g><!--link a9971c5653c1a3c3f8a227f5731bf190 to 91d94b9f0ccab947ba604e7649b6f663--><g id="link_a9971c5653c1a3c3f8a227f5731bf190_91d94b9f0ccab947ba604e7649b6f663"><path codeLine="78" d="M574.76,120.27 C583.63,129.25 593.93,137.91 605,143.89 C621.34,152.71 628.8,144.91 646,151.89 C750.73,194.36 774.52,215.71 859,290.78 C873.32,303.5 883.4794,314.6467 894.9394,328.9567 " fill="none" id="a9971c5653c1a3c3f8a227f5731bf190-to-91d94b9f0ccab947ba604e7649b6f663" style="stroke:#181818;stroke-width:1.0;"/><polygon fill="#181818" points="898.69,333.64,896.1864,324.1147,895.5645,329.7373,889.942,329.1154,898.69,333.64" style="stroke:#181818;stroke-width:1.0;"/></g><!--link a9971c5653c1a3c3f8a227f5731bf190 to da5107891f7486fc25c93ba3254fdb0d--><g id="link_a9971c5653c1a3c3f8a227f5731bf190_da5107891f7486fc25c93ba3254fdb0d"><path codeLine="79" d="M554.71,120.16 C561,142.93 567.342,165.8367 573.642,188.6367 " fill="none" id="a9971c5653c1a3c3f8a227f5731bf190-to-da5107891f7486fc25c93ba3254fdb0d" style="stroke:#181818;stroke-width:1.0;"/><polygon fill="#181818" points="575.24,194.42,576.6985,184.6797,573.9083,189.6006,568.9875,186.8104,575.24,194.42" style="stroke:#181818;stroke-width:1.0;"/></g><!--link a9971c5653c1a3c3f8a227f5731bf190 to 030382f4c6c237630a97e1c778a0903f--><g id="link_a9971c5653c1a3c3f8a227f5731bf190_030382f4c6c237630a97e1c778a0903f"><path codeLine="80" d="M531.96,120.36 C514.71,176.07 484.9547,272.2285 467.7447,327.8085 " fill="none" id="a9971c5653c1a3c3f8a227f5731bf190-to-030382f4c6c237630a97e1c778a0903f" style="stroke:#181818;stroke-width:1.0;"/><polygon fill="#181818" points="465.97,333.54,472.4531,326.1259,467.4489,328.7637,464.8111,323.7596,465.97,333.54" style="stroke:#181818;stroke-width:1.0;"/></g><!--link d85662de09437d9867fe2f4131a73778 to e92735e4ad030c14012828a773b4bcb6--><g id="link_d85662de09437d9867fe2f4131a73778_e92735e4ad030c14012828a773b4bcb6"><path codeLine="81" d="M105,413.09 C105,431.74 105,448.02 105,466.63 " fill="none" id="d85662de09437d9867fe2f4131a73778-to-e92735e4ad030c14012828a773b4bcb6" style="stroke:#181818;stroke-width:1.0;"/><polygon fill="#181818" points="105,472.63,109,463.63,105,467.63,101,463.63,105,472.63" style="stroke:#181818;stroke-width:1.0;"/></g><!--link 0bd5e95d3ed9682024f327b3c6a273b0 to 030382f4c6c237630a97e1c778a0903f--><g id="link_0bd5e95d3ed9682024f327b3c6a273b0_030382f4c6c237630a97e1c778a0903f"><path codeLine="82" d="M187.98,269.05 C193.69,270.81 199.4,272.41 205,273.78 C270.61,289.8 293.87,264.31 356,290.78 C379,300.58 396.3965,313.5038 413.5565,329.4638 " fill="none" id="0bd5e95d3ed9682024f327b3c6a273b0-to-030382f4c6c237630a97e1c778a0903f" style="stroke:#181818;stroke-width:1.0;"/><polygon fill="#181818" points="417.95,333.55,414.0839,324.4917,414.2888,330.1448,408.6356,330.3496,417.95,333.55" style="stroke:#181818;stroke-width:1.0;"/></g><!--link 0bd5e95d3ed9682024f327b3c6a273b0 to d85662de09437d9867fe2f4131a73778--><g id="link_0bd5e95d3ed9682024f327b3c6a273b0_d85662de09437d9867fe2f4131a73778"><path codeLine="83" d="M105,274.19 C105,292.85 105,309.13 105,327.74 " fill="none" id="0bd5e95d3ed9682024f327b3c6a273b0-to-d85662de09437d9867fe2f4131a73778" style="stroke:#181818;stroke-width:1.0;"/><polygon fill="#181818" points="105,333.74,109,324.74,105,328.74,101,324.74,105,333.74" style="stroke:#181818;stroke-width:1.0;"/></g><!--link c1b6bd7440ae06f7930764aa24dfc835 to 030382f4c6c237630a97e1c778a0903f--><g id="link_c1b6bd7440ae06f7930764aa24dfc835_030382f4c6c237630a97e1c778a0903f"><path codeLine="84" d="M334.14,274.04 C341.53,279.59 348.99,285.28 356,290.78 C373.41,304.43 387.568,315.9901 403.968,329.7101 " fill="none" id="c1b6bd7440ae06f7930764aa24dfc835-to-030382f4c6c237630a97e1c778a0903f" style="stroke:#181818;stroke-width:1.0;"/><polygon fill="#181818" points="408.57,333.56,404.2337,324.7171,404.735,330.3517,399.1004,330.8531,408.57,333.56" style="stroke:#181818;stroke-width:1.0;"/></g><!--link 91d94b9f0ccab947ba604e7649b6f663 to 4b845496969556c255f4355a8cab1be6--><g id="link_91d94b9f0ccab947ba604e7649b6f663_4b845496969556c255f4355a8cab1be6"><path codeLine="85" d="M891.23,413.09 C874.06,431.74 857.6135,449.6055 840.4835,468.2155 " fill="none" id="91d94b9f0ccab947ba604e7649b6f663-to-4b845496969556c255f4355a8cab1be6" style="stroke:#181818;stroke-width:1.0;"/><polygon fill="#181818" points="836.42,472.63,845.4582,468.7172,839.8062,468.9512,839.5722,463.2992,836.42,472.63" style="stroke:#181818;stroke-width:1.0;"/></g><!--link 0ea3fb9627ce83d115bba3c004939083 to 4b845496969556c255f4355a8cab1be6--><g id="link_0ea3fb9627ce83d115bba3c004939083_4b845496969556c255f4355a8cab1be6"><path codeLine="86" d="M799.57,413.09 C799.84,431.74 800.083,448.0206 800.353,466.6306 " fill="none" id="0ea3fb9627ce83d115bba3c004939083-to-4b845496969556c255f4355a8cab1be6" style="stroke:#181818;stroke-width:1.0;"/><polygon fill="#181818" points="800.44,472.63,804.309,463.5729,800.3675,467.6305,796.3099,463.689,800.44,472.63" style="stroke:#181818;stroke-width:1.0;"/></g><!--SRC=[ZPF1RXin34Jl-nL6ZWQ2Kg94YPV-I544b4G5HkrTmrut0Oh-UuLrMYTrKUrPuF1fE2Fx_VHosBtknkVXAFcRFElcuQppvVZfOIFd3GKNVV69j6X4jI1K0n3RQjYXwkR7aAV3SHfrd3VPb-YDKSmbHiqkQp8cQYmXYhUHDr-6xVPosf-tss4OlWu_RolrLGx7lPwlMqqYTZPahiek0mIVW8ewGyZ401-s5l46GcHJ6olLR7rcJ8BMkreIb6LhdKw7tsjleq36EinLIr0LDHXj-weX3uPPLFu6laqASp3PayTi13FMADQ6wWEQrAo1PVBxJb_kHxtDngJiAXGHBecZCYf7romkxAvBvNZy1ov28wmkKxOO244ugCcXsGiCM9V9mrJqdSEtQMKRqAkJqdIoSM1ij552mEHIJhHCBwT_6_vpd5dFyzjbf9gGaXDo4Jq49xP68AHKRAJI43vS9deYMnHQL4BXIA5gmpTe962ZNZOcEUlzJrFnohvWSuIY1Uigsf0maxHFfAkz2zPJlOnvtasZxEzKSijHAi4v48MMMqO8v4IiApKt_dSgbt4ttwSoJTDydazoV6gkolvfIT5RCLYg3P1BQ5afM8flmREQ5RH23lB123Rji8dRGvR4BYGXSDfOE54bmWNaMKSzxVAz5ofO4rFhGwjWCSQdbkxM2iV84F4_-NOfEkzQPOYzRw7nlZhqNcB3C4cl9r_QVmjCjqwFvV5p5sgbJ0zmBKsd64EthejCxqmhPNhCAsMwd-hMQv7frNxeTcqTpJgP7lFGxUmwccxZriMlsxrLChy0]--></g></svg>