<svg xmlns="http://www.w3.org/2000/svg" xmlns:xlink="http://www.w3.org/1999/xlink" contentStyleType="text/css" height="603px" preserveAspectRatio="none" style="width:1024px;height:603px;background:#FFFFFF;" version="1.1" viewBox="0 0 1024 603" width="1024px" zoomAndPan="magnify"><defs/><g><!--cluster 0bba956a73d186d8ae74f784465a5a65--><g id="cluster_0bba956a73d186d8ae74f784465a5a65"><polygon fill="none" points="16,16,26,6,956,6,956,485.18,946,495.18,16,495.18,16,16" style="stroke:#181818;stroke-width:1.0;"/><line style="stroke:#181818;stroke-width:1.0;" x1="946" x2="956" y1="16" y2="6"/><line style="stroke:#181818;stroke-width:1.0;" x1="16" x2="946" y1="16" y2="16"/><line style="stroke:#181818;stroke-width:1.0;" x1="946" x2="946" y1="16" y2="495.18"/><text fill="#000000" font-family="sans-serif" font-size="14" font-weight="bold" lengthAdjust="spacing" textLength="242" x="361" y="31.9951">Django-bootstrap-modal-forms</text></g><!--entity d281b8ffb061adf7a9f57701cc32957c--><g id="elem_d281b8ffb061adf7a9f57701cc32957c"><rect fill="#F1F1F1" height="78.8906" rx="2.5" ry="2.5" style="stroke:#181818;stroke-width:0.5;" width="281" x="518.5" y="46"/><rect fill="#F1F1F1" height="10" style="stroke:#181818;stroke-width:0.5;" width="15" x="779.5" y="51"/><rect fill="#F1F1F1" height="2" style="stroke:#181818;stroke-width:0.5;" width="4" x="777.5" y="53"/><rect fill="#F1F1F1" height="2" style="stroke:#181818;stroke-width:0.5;" width="4" x="777.5" y="57"/><text fill="#000000" font-family="sans-serif" font-size="14" font-weight="bold" lengthAdjust="spacing" textLength="241" x="533.5" y="78.9951">django-bootstrap-modal-forms</text><text fill="#000000" font-family="sans-serif" font-size="14" lengthAdjust="spacing" textLength="4" x="533.5" y="95.292">&#160;</text><text fill="#000000" font-family="sans-serif" font-size="14" lengthAdjust="spacing" textLength="4" x="533.5" y="111.5889">&#160;</text></g><!--entity 573b4c44ff1ca6125b70f8e3a3bd04f4--><g id="elem_573b4c44ff1ca6125b70f8e3a3bd04f4"><ellipse cx="882" cy="214.89" fill="#F1F1F1" rx="8" ry="8" style="stroke:#181818;stroke-width:0.5;"/><text fill="#000000" font-family="sans-serif" font-size="14" lengthAdjust="spacing" textLength="36" x="864" y="244.8851">8000</text></g><!--entity 57a0e355ee8df36777512329d756e5a4--><g id="elem_57a0e355ee8df36777512329d756e5a4"><rect fill="#F1F1F1" height="39.2969" rx="2.5" ry="2.5" style="stroke:#181818;stroke-width:0.5;" width="183" x="32.5" y="439.89"/><polygon fill="#F1F1F1" points="198.5,444.89,198.5,458.89,210.5,458.89,210.5,450.89,204.5,444.89,198.5,444.89" style="stroke:#181818;stroke-width:0.5;"/><line style="stroke:#181818;stroke-width:0.5;" x1="204.5" x2="204.5" y1="444.89" y2="450.89"/><line style="stroke:#181818;stroke-width:0.5;" x1="210.5" x2="204.5" y1="450.89" y2="450.89"/><text fill="#000000" font-family="sans-serif" font-size="14" lengthAdjust="spacing" textLength="153" x="42.5" y="465.8851">/usr/src/app/database</text></g><!--entity 9d87098e87b64651f50123a72a83ecc4--><g id="elem_9d87098e87b64651f50123a72a83ecc4"><rect fill="#F1F1F1" height="39.2969" rx="2.5" ry="2.5" style="stroke:#181818;stroke-width:0.5;" width="281" x="250.5" y="439.89"/><polygon fill="#F1F1F1" points="514.5,444.89,514.5,458.89,526.5,458.89,526.5,450.89,520.5,444.89,514.5,444.89" style="stroke:#181818;stroke-width:0.5;"/><line style="stroke:#181818;stroke-width:0.5;" x1="520.5" x2="520.5" y1="444.89" y2="450.89"/><line style="stroke:#181818;stroke-width:0.5;" x1="526.5" x2="520.5" y1="450.89" y2="450.89"/><text fill="#000000" font-family="sans-serif" font-size="14" lengthAdjust="spacing" textLength="251" x="260.5" y="465.8851">/usr/src/app/bootstrap_modal_forms</text></g><!--entity ae67c16340a88701c6cf98a5b55a4610--><g id="elem_ae67c16340a88701c6cf98a5b55a4610"><rect fill="#F1F1F1" height="39.2969" rx="2.5" ry="2.5" style="stroke:#181818;stroke-width:0.5;" width="185" x="566.5" y="439.89"/><polygon fill="#F1F1F1" points="734.5,444.89,734.5,458.89,746.5,458.89,746.5,450.89,740.5,444.89,734.5,444.89" style="stroke:#181818;stroke-width:0.5;"/><line style="stroke:#181818;stroke-width:0.5;" x1="740.5" x2="740.5" y1="444.89" y2="450.89"/><line style="stroke:#181818;stroke-width:0.5;" x1="746.5" x2="740.5" y1="450.89" y2="450.89"/><text fill="#000000" font-family="sans-serif" font-size="14" lengthAdjust="spacing" textLength="155" x="576.5" y="465.8851">/usr/src/app/examples</text></g><!--entity 56432701a6f9d12876d1c64ab78bc428--><g id="elem_56432701a6f9d12876d1c64ab78bc428"><rect fill="#F1F1F1" height="39.2969" rx="2.5" ry="2.5" style="stroke:#181818;stroke-width:0.5;" width="154" x="786" y="439.89"/><polygon fill="#F1F1F1" points="923,444.89,923,458.89,935,458.89,935,450.89,929,444.89,923,444.89" style="stroke:#181818;stroke-width:0.5;"/><line style="stroke:#181818;stroke-width:0.5;" x1="929" x2="929" y1="444.89" y2="450.89"/><line style="stroke:#181818;stroke-width:0.5;" x1="935" x2="929" y1="450.89" y2="450.89"/><text fill="#000000" font-family="sans-serif" font-size="14" lengthAdjust="spacing" textLength="124" x="796" y="465.8851">/usr/src/app/tests</text></g><!--entity 1624c420083928ef3e240dd88f2e52f0--><g id="elem_1624c420083928ef3e240dd88f2e52f0"><ellipse cx="999" cy="349.89" fill="#F1F1F1" rx="8" ry="8" style="stroke:#181818;stroke-width:0.5;"/><text fill="#000000" font-family="sans-serif" font-size="14" lengthAdjust="spacing" textLength="36" x="981" y="379.8851">8000</text></g><!--entity c936e0bae4d4f3f1f76d98b9f1ecff22--><g id="elem_c936e0bae4d4f3f1f76d98b9f1ecff22"><rect fill="#F1F1F1" height="39.2969" rx="2.5" ry="2.5" style="stroke:#181818;stroke-width:0.5;" width="148" x="50" y="558.18"/><polygon fill="#F1F1F1" points="181,563.18,181,577.18,193,577.18,193,569.18,187,563.18,181,563.18" style="stroke:#181818;stroke-width:0.5;"/><line style="stroke:#181818;stroke-width:0.5;" x1="187" x2="187" y1="563.18" y2="569.18"/><line style="stroke:#181818;stroke-width:0.5;" x1="193" x2="187" y1="569.18" y2="569.18"/><text fill="#000000" font-family="sans-serif" font-size="14" lengthAdjust="spacing" textLength="118" x="60" y="584.1751">persist_database</text></g><!--entity 0e58c79e7062c930497fa0a0cc919ae3--><g id="elem_0e58c79e7062c930497fa0a0cc919ae3"><rect fill="#F1F1F1" height="39.2969" rx="2.5" ry="2.5" style="stroke:#181818;stroke-width:0.5;" width="201" x="290.5" y="558.18"/><polygon fill="#F1F1F1" points="474.5,563.18,474.5,577.18,486.5,577.18,486.5,569.18,480.5,563.18,474.5,563.18" style="stroke:#181818;stroke-width:0.5;"/><line style="stroke:#181818;stroke-width:0.5;" x1="480.5" x2="480.5" y1="563.18" y2="569.18"/><line style="stroke:#181818;stroke-width:0.5;" x1="486.5" x2="480.5" y1="569.18" y2="569.18"/><text fill="#000000" font-family="sans-serif" font-size="14" lengthAdjust="spacing" textLength="171" x="300.5" y="584.1751">./bootstrap_modal_forms</text></g><!--entity 74311a078c9c582b854e1c69a79c9721--><g id="elem_74311a078c9c582b854e1c69a79c9721"><rect fill="#F1F1F1" height="39.2969" rx="2.5" ry="2.5" style="stroke:#181818;stroke-width:0.5;" width="105" x="606.5" y="558.18"/><polygon fill="#F1F1F1" points="694.5,563.18,694.5,577.18,706.5,577.18,706.5,569.18,700.5,563.18,694.5,563.18" style="stroke:#181818;stroke-width:0.5;"/><line style="stroke:#181818;stroke-width:0.5;" x1="700.5" x2="700.5" y1="563.18" y2="569.18"/><line style="stroke:#181818;stroke-width:0.5;" x1="706.5" x2="700.5" y1="569.18" y2="569.18"/><text fill="#000000" font-family="sans-serif" font-size="14" lengthAdjust="spacing" textLength="75" x="616.5" y="584.1751">./examples</text></g><!--entity 1959e558d7a4afcf74f32f0029843e45--><g id="elem_1959e558d7a4afcf74f32f0029843e45"><rect fill="#F1F1F1" height="39.2969" rx="2.5" ry="2.5" style="stroke:#181818;stroke-width:0.5;" width="74" x="826" y="558.18"/><polygon fill="#F1F1F1" points="883,563.18,883,577.18,895,577.18,895,569.18,889,563.18,883,563.18" style="stroke:#181818;stroke-width:0.5;"/><line style="stroke:#181818;stroke-width:0.5;" x1="889" x2="889" y1="563.18" y2="569.18"/><line style="stroke:#181818;stroke-width:0.5;" x1="895" x2="889" y1="569.18" y2="569.18"/><text fill="#000000" font-family="sans-serif" font-size="14" lengthAdjust="spacing" textLength="44" x="836" y="584.1751">./tests</text></g><!--link d281b8ffb061adf7a9f57701cc32957c to 573b4c44ff1ca6125b70f8e3a3bd04f4--><g id="link_d281b8ffb061adf7a9f57701cc32957c_573b4c44ff1ca6125b70f8e3a3bd04f4"><path codeLine="19" d="M727.12,125.37 C780.4,155.82 849.35,195.22 873.33,208.93 " fill="none" id="d281b8ffb061adf7a9f57701cc32957c-573b4c44ff1ca6125b70f8e3a3bd04f4" style="stroke:#181818;stroke-width:1.0;"/></g><!--link 573b4c44ff1ca6125b70f8e3a3bd04f4 to 1624c420083928ef3e240dd88f2e52f0--><g id="link_573b4c44ff1ca6125b70f8e3a3bd04f4_1624c420083928ef3e240dd88f2e52f0"><path codeLine="20" d="M888.97,223.81 C909.83,247.52 971.6,317.74 992.21,341.17 " fill="none" id="573b4c44ff1ca6125b70f8e3a3bd04f4-1624c420083928ef3e240dd88f2e52f0" style="stroke:#181818;stroke-width:1.0;"/></g><!--link 57a0e355ee8df36777512329d756e5a4 to c936e0bae4d4f3f1f76d98b9f1ecff22--><g id="link_57a0e355ee8df36777512329d756e5a4_c936e0bae4d4f3f1f76d98b9f1ecff22"><path codeLine="21" d="M124,479.48 C124,501.1 124,536.27 124,557.9 " fill="none" id="57a0e355ee8df36777512329d756e5a4-c936e0bae4d4f3f1f76d98b9f1ecff22" style="stroke:#181818;stroke-width:1.0;"/><text fill="#000000" font-family="sans-serif" font-size="13" lengthAdjust="spacing" textLength="14" x="125" y="524.2469">rw</text></g><!--link d281b8ffb061adf7a9f57701cc32957c to 57a0e355ee8df36777512329d756e5a4--><g id="link_d281b8ffb061adf7a9f57701cc32957c_57a0e355ee8df36777512329d756e5a4"><path codeLine="22" d="M603.01,125.38 C489.4,204.4 240.3756,377.5939 156.4456,435.9739 " fill="none" id="d281b8ffb061adf7a9f57701cc32957c-to-57a0e355ee8df36777512329d756e5a4" style="stroke:#181818;stroke-width:1.0;stroke-dasharray:7.0,7.0;"/><polygon fill="#181818" points="151.52,439.4,161.1925,437.5445,155.6247,436.5449,156.6243,430.977,151.52,439.4" style="stroke:#181818;stroke-width:1.0;"/><text fill="#000000" font-family="sans-serif" font-size="13" lengthAdjust="spacing" textLength="23" x="389" y="286.9569">use</text></g><!--link 9d87098e87b64651f50123a72a83ecc4 to 0e58c79e7062c930497fa0a0cc919ae3--><g id="link_9d87098e87b64651f50123a72a83ecc4_0e58c79e7062c930497fa0a0cc919ae3"><path codeLine="23" d="M391,479.48 C391,501.1 391,536.27 391,557.9 " fill="none" id="9d87098e87b64651f50123a72a83ecc4-0e58c79e7062c930497fa0a0cc919ae3" style="stroke:#181818;stroke-width:1.0;"/><text fill="#000000" font-family="sans-serif" font-size="13" lengthAdjust="spacing" textLength="14" x="392" y="524.2469">rw</text></g><!--link d281b8ffb061adf7a9f57701cc32957c to 9d87098e87b64651f50123a72a83ecc4--><g id="link_d281b8ffb061adf7a9f57701cc32957c_9d87098e87b64651f50123a72a83ecc4"><path codeLine="24" d="M631.08,125.21 C574.1,204.32 449.7963,376.8911 408.0063,434.9211 " fill="none" id="d281b8ffb061adf7a9f57701cc32957c-to-9d87098e87b64651f50123a72a83ecc4" style="stroke:#181818;stroke-width:1.0;stroke-dasharray:7.0,7.0;"/><polygon fill="#181818" points="404.5,439.79,413.0054,434.8242,407.4219,435.7326,406.5135,430.1492,404.5,439.79" style="stroke:#181818;stroke-width:1.0;"/><text fill="#000000" font-family="sans-serif" font-size="13" lengthAdjust="spacing" textLength="23" x="524" y="286.9569">use</text></g><!--link ae67c16340a88701c6cf98a5b55a4610 to 74311a078c9c582b854e1c69a79c9721--><g id="link_ae67c16340a88701c6cf98a5b55a4610_74311a078c9c582b854e1c69a79c9721"><path codeLine="25" d="M659,479.48 C659,501.1 659,536.27 659,557.9 " fill="none" id="ae67c16340a88701c6cf98a5b55a4610-74311a078c9c582b854e1c69a79c9721" style="stroke:#181818;stroke-width:1.0;"/><text fill="#000000" font-family="sans-serif" font-size="13" lengthAdjust="spacing" textLength="14" x="660" y="524.2469">rw</text></g><!--link d281b8ffb061adf7a9f57701cc32957c to ae67c16340a88701c6cf98a5b55a4610--><g id="link_d281b8ffb061adf7a9f57701cc32957c_ae67c16340a88701c6cf98a5b55a4610"><path codeLine="26" d="M659,125.21 C659,204.32 659,375.76 659,433.79 " fill="none" id="d281b8ffb061adf7a9f57701cc32957c-to-ae67c16340a88701c6cf98a5b55a4610" style="stroke:#181818;stroke-width:1.0;stroke-dasharray:7.0,7.0;"/><polygon fill="#181818" points="659,439.79,663,430.79,659,434.79,655,430.79,659,439.79" style="stroke:#181818;stroke-width:1.0;"/><text fill="#000000" font-family="sans-serif" font-size="13" lengthAdjust="spacing" textLength="23" x="660" y="286.9569">use</text></g><!--link 56432701a6f9d12876d1c64ab78bc428 to 1959e558d7a4afcf74f32f0029843e45--><g id="link_56432701a6f9d12876d1c64ab78bc428_1959e558d7a4afcf74f32f0029843e45"><path codeLine="27" d="M863,479.48 C863,501.1 863,536.27 863,557.9 " fill="none" id="56432701a6f9d12876d1c64ab78bc428-1959e558d7a4afcf74f32f0029843e45" style="stroke:#181818;stroke-width:1.0;"/><text fill="#000000" font-family="sans-serif" font-size="13" lengthAdjust="spacing" textLength="14" x="864" y="524.2469">rw</text></g><!--link d281b8ffb061adf7a9f57701cc32957c to 56432701a6f9d12876d1c64ab78bc428--><g id="link_d281b8ffb061adf7a9f57701cc32957c_56432701a6f9d12876d1c64ab78bc428"><path codeLine="28" d="M680.25,125.21 C723.63,204.32 818.0259,376.4986 849.8359,434.5286 " fill="none" id="d281b8ffb061adf7a9f57701cc32957c-to-56432701a6f9d12876d1c64ab78bc428" style="stroke:#181818;stroke-width:1.0;stroke-dasharray:7.0,7.0;"/><polygon fill="#181818" points="852.72,439.79,851.9014,429.9752,850.3166,435.4055,844.8863,433.8207,852.72,439.79" style="stroke:#181818;stroke-width:1.0;"/><text fill="#000000" font-family="sans-serif" font-size="13" lengthAdjust="spacing" textLength="23" x="771" y="286.9569">use</text></g><!--SRC=[bPFDRXin38Jl-nGBdre3jlLFgeUU-XP5OL0I6RYmlSRk1WbGzDshs4aJ7np1T_6RqN18-_tmTDWzxuuFtN4et2z-_ARZmx1Amp1FyqYdrM4ej5_9C1wcHKzJhrAYw0E1BHf3GM9m0kXSyEGf-FvFr-VXS1gEV9pxOb0d54agQ2e25CK3A9spDT53xdzsosNvH7EvxBhkL_VbQxz0fTJPWWURN7PEH6SAslW4If0jsLIK4zVHEE-4yjmlDe_Jk9d6lA7JQLDefaGJlq98iVMU6OlO001UcsggW0_iwIRalyljsUNsFPbO45H4HaYXfg75gqeaC8IMSxv9v6SwdFPyWH07o3fOfmZn9QYG9IBvvAkdeDKjoCpJV27uuAofanGa5cqGGgaKHmamPMUm-tkTfWwcXccKGXiDibWsJfM2A8QzaO-A9nwdtJHlhuBCqGPMYTWL9rQqLC68AOhcB6BCX_dr9-afzfWXCgXWAbAv24AALCvHHs9xXRcA39pLcXHWZjcZIUWTrnz7WfWZ67qr-PwJZZwozrY074cMMcDRlwjCH6VP-QxPtLLPjRlOUd2cD7VGQkkPqjf4_wrVZ4-BziVMwx9UVs-Uo0lliRQWQpN_xAwru7lTDKNVtBLEwkokLQ9xtJL5tzorplNIZqPNxzviI_JLtJy0]--></g></svg>